{
  "asset": {
    "version": "2.0",
    "generator": "THREE.GLTFExporter"
  },
  "scenes": [
    {
      "nodes": [
        0
      ]
    }
  ],
  "scene": 0,
  "nodes": [
    {
      "children": [
        9
      ],
      "matrix": [
        0.01,
        0,
        0,
        0,
        0,
        0.01,
        0,
        0,
        0,
        0,
        0.01,
        0,
        0,
        0,
        0,
        1
      ]
    },
    {
      "matrix": [
        1.8328725261971563,
        0,
        0,
        0,
        0,
        1.8328725261971563,
        0,
        0,
        0,
        0,
        1.8328725261971566,
        0,
        -1.2402602474461806,
        -116.59865397110815,
        -1039.1118846420354,
        1
      ],
      "name": "elipse_light",
      "mesh": 0
    },
    {
      "matrix": [
        1,
        0,
        0,
        0,
        0,
        1,
        0,
        0,
        0,
        0,
        1,
        0,
        -1.2402602474461806,
        70,
        1558.198200397987,
        1
      ],
      "name": "Camera",
      "camera": 0
    },
    {
      "matrix": [
        1.8328725261971563,
        0,
        0,
        0,
        0,
        1.8328725261971563,
        0,
        0,
        0,
        0,
        1.8328725261971566,
        0,
        -1.2402602474461806,
        -521.6554239058626,
        -525.7031386420116,
        1
      ],
      "name": "Boolean",
      "mesh": 1
    },
    {
      "name": "glowing_tube 2",
      "mesh": 2
    },
    {
      "matrix": [
        1,
        0,
        0,
        0,
        0,
        1,
        0,
        0,
        0,
        0,
        1,
        0,
        -1.762019923488026,
        2.083183116366854,
        -11.992973498994996,
        1
      ],
      "name": "elipse_light",
      "mesh": 3
    },
    {
      "matrix": [
        1.8328725261971563,
        0,
        0,
        0,
        0,
        1.8328725261971563,
        0,
        0,
        0,
        0,
        1.8328725261971566,
        0,
        -1.2402602474461806,
        -133.24697075551478,
        -222.47667606923477,
        1
      ],
      "name": "Glow",
      "children": [
        4,
        5
      ]
    },
    {
      "matrix": [
        1,
        0,
        0,
        0,
        0,
        1,
        0,
        0,
        0,
        0,
        1,
        0,
        -1.2402602474461806,
        -15.50896854080949,
        1558.198200397987,
        1
      ],
      "name": "Personal Camera",
      "camera": 1
    },
    {
      "matrix": [
        1,
        0,
        0,
        0,
        0,
        1,
        0,
        0,
        0,
        0,
        1,
        0,
        0,
        1,
        0,
        1
      ],
      "name": "Default Ambient Light"
    },
    {
      "name": "Scene 1",
      "children": [
        1,
        2,
        3,
        6,
        7,
        8
      ]
    }
  ],
  "bufferViews": [
    {
      "buffer": 0,
      "byteOffset": 0,
      "byteLength": 9288,
      "target": 34962,
      "byteStride": 12
    },
    {
      "buffer": 0,
      "byteOffset": 9288,
      "byteLength": 9288,
      "target": 34962,
      "byteStride": 12
    },
    {
      "buffer": 0,
      "byteOffset": 18576,
      "byteLength": 123408,
      "target": 34962,
      "byteStride": 12
    },
    {
      "buffer": 0,
      "byteOffset": 141984,
      "byteLength": 123408,
      "target": 34962,
      "byteStride": 12
    },
    {
      "buffer": 0,
      "byteOffset": 265392,
      "byteLength": 123264,
      "target": 34962,
      "byteStride": 12
    },
    {
      "buffer": 0,
      "byteOffset": 388656,
      "byteLength": 123264,
      "target": 34962,
      "byteStride": 12
    },
    {
      "buffer": 0,
      "byteOffset": 511920,
      "byteLength": 13896,
      "target": 34962,
      "byteStride": 12
    },
    {
      "buffer": 0,
      "byteOffset": 525816,
      "byteLength": 13896,
      "target": 34962,
      "byteStride": 12
    }
  ],
  "buffers": [
    {
      "byteLength": 539712,
      "uri": "data:application/octet-stream;base64,"
    }
  ],
  "accessors": [
    {
      "bufferView": 0,
      "componentType": 5126,
      "count": 774,
      "max": [
        256.771484375,
        256.771484375,
        10.723871231079102
      ],
      "min": [
        -256.771484375,
        -20.81390380859375,
        -9.215259552001953
      ],
      "type": "VEC3"
    },
    {
      "bufferView": 1,
      "componentType": 5126,
      "count": 774,
      "max": [
        0.9998477101325989,
        0.9998477101325989,
        0.9996954202651978
      ],
      "min": [
        -0.9998477101325989,
        -0.05072720721364021,
        -0.9996954202651978
      ],
      "type": "VEC3"
    },
    {
      "bufferView": 2,
      "componentType": 5126,
      "count": 10284,
      "max": [
        259.749755859375,
        439.5334167480469,
        22.405733108520508
      ],
      "min": [
        -190.18173217773438,
        193.18170166015625,
        -26.576366424560547
      ],
      "type": "VEC3"
    },
    {
      "bufferView": 3,
      "componentType": 5126,
      "count": 10284,
      "max": [
        null,
        null,
        null
      ],
      "min": [
        null,
        null,
        null
      ],
      "type": "VEC3"
    },
    {
      "bufferView": 4,
      "componentType": 5126,
      "count": 10272,
      "max": [
        216.8825225830078,
        216.88253784179688,
        12.66562271118164
      ],
      "min": [
        -216.8825225830078,
        -18.730712890625,
        -11.465251922607422
      ],
      "type": "VEC3"
    },
    {
      "bufferView": 5,
      "componentType": 5126,
      "count": 10272,
      "max": [
        null,
        null,
        null
      ],
      "min": [
        null,
        null,
        null
      ],
      "type": "VEC3"
    },
    {
      "bufferView": 6,
      "componentType": 5126,
      "count": 1158,
      "max": [
        204.7559814453125,
        204.75596618652344,
        8.551481246948242
      ],
      "min": [
        -204.7559814453125,
        -20.81390380859375,
        -7.418343544006348
      ],
      "type": "VEC3"
    },
    {
      "bufferView": 7,
      "componentType": 5126,
      "count": 1158,
      "max": [
        0.9998477101325989,
        0.9998477101325989,
        0.9996954202651978
      ],
      "min": [
        -0.9998477101325989,
        -1,
        -0.9996954202651978
      ],
      "type": "VEC3"
    }
  ],
  "meshes": [
    {
      "primitives": [
        {
          "mode": 4,
          "attributes": {
            "POSITION": 0,
            "NORMAL": 1
          },
          "extras": {
            "parameters": {
              "width": 513.54296875,
              "height": 277.58538818359375,
              "depth": 19.939130783081055
            }
          }
        }
      ]
    },
    {
      "primitives": [
        {
          "mode": 4,
          "attributes": {
            "POSITION": 2,
            "NORMAL": 3
          },
          "extras": {
            "parameters": {
              "width": 449.9314880371094,
              "height": 246.3517303466797,
              "depth": 48.98209762573242
            }
          }
        }
      ]
    },
    {
      "primitives": [
        {
          "mode": 4,
          "attributes": {
            "POSITION": 4,
            "NORMAL": 5
          },
          "extras": {
            "parameters": {
              "width": 433.7650451660156,
              "height": 235.61325073242188,
              "depth": 24.130874633789062
            }
          }
        }
      ]
    },
    {
      "primitives": [
        {
          "mode": 4,
          "attributes": {
            "POSITION": 6,
            "NORMAL": 7
          },
          "extras": {
            "parameters": {
              "width": 409.511962890625,
              "height": 225.5698699951172,
              "depth": 15.96982479095459
            }
          }
        }
      ]
    }
  ],
  "cameras": [
    {
      "type": "orthographic",
      "orthographic": {
        "xmag": 8.907142857142858,
        "ymag": 4.596428571428572,
        "zfar": 100000,
        "znear": 0
      },
      "name": "Camera"
    },
    {
      "type": "orthographic",
      "orthographic": {
        "xmag": 10.1568929375,
        "ymag": 5.241347718750001,
        "zfar": 100000,
        "znear": 0
      },
      "name": "Camera"
    }
  ]
}