<?xml version="1.0" encoding="UTF-8"?>
<svg width="120" height="24" viewBox="0 0 120 24" xmlns="http://www.w3.org/2000/svg" role="img" aria-label="Visa ve Mastercard">
  <g transform="translate(0, 0)">
    <rect fill="#FF5F00" x="14.2" y="2.5" width="10.5" height="18.7" />
    <path
      fill="#EB001B"
      d="M14.9,11.9 C14.9,8.1 16.7,4.7 19.5,2.5 C17.4,1 14.8,0 12,0 C5.4,0 0,5.3 0,11.9 C0,18.5 5.4,23.8 12,23.8 C14.8,23.8 17.4,22.8 19.4,21.3 C16.7,19.1 14.9,15.7 14.9,11.9 Z"
    />
    <path
      fill="#F79E1B"
      d="M39,11.9 C39,18.5 33.6,23.8 27,23.8 C24.2,23.8 21.6,22.8 19.6,21.3 C22.4,19.1 24.2,15.7 24.2,11.9 C24.2,8.1 22.4,4.7 19.6,2.5 C21.5,1 24.1,0 26.9,0 C33.6,0 39,5.4 39,11.9 Z"
    />
  </g>
  <g transform="translate(52, 2)">
    <defs>
      <linearGradient id="visa-gradient" x1="0%" y1="50%" x2="100%" y2="50%">
        <stop offset="0%" stop-color="#1D1C45" />
        <stop offset="100%" stop-color="#174489" />
      </linearGradient>
    </defs>
    <path
      fill="url(#visa-gradient)"
      d="M30.7,0.4 L26.6,19.7 L21.6,19.7 L25.7,0.4 L30.7,0.4 Z M51.8,12.8 L54.4,5.5 L55.9,12.8 L51.8,12.8 Z M57.4,19.7 L62,19.7 L58,0.4 L53.7,0.4 C52.7,0.4 51.9,1 51.6,1.8 L44,19.7 L49.3,19.7 L50.3,16.8 L56.7,16.8 L57.4,19.7 Z M44.3,13.4 C44.3,8.3 37.2,8 37.3,5.7 C37.3,5 38,4.3 39.4,4.1 C40.1,4 42.1,3.9 44.3,5 L45.2,0.9 C44,0.4 42.5,0 40.5,0 C35.5,0 32.1,2.6 32,6.4 C32,9.2 34.5,10.7 36.4,11.7 C38.4,12.6 39,13.3 39,14.1 C39,15.4 37.4,16 36,16 C33.5,16 32,15.3 30.9,14.8 L30,19 C31.2,19.5 33.3,20 35.6,20 C40.8,20 44.3,17.4 44.3,13.4 Z M23.5,0.4 L15.4,19.7 L10.1,19.7 L6.1,4.3 C5.9,3.3 5.6,3 4.9,2.6 C3.7,1.9 1.7,1.3 0,1 L0.1,0.4 L8.6,0.4 C9.7,0.4 10.7,1.1 10.9,2.4 L13,13.6 L18.2,0.4 L23.5,0.4 Z"
    />
  </g>
</svg>
